<svg width="29" height="27" viewBox="0 0 29 27" fill="none" xmlns="http://www.w3.org/2000/svg">
<path d="M27.24 12.9V2.38998C27.24 1.06998 26.17 0 24.85 0H3.82001C2.50001 0 1.42999 1.06998 1.42999 2.38998V9.56C0.639993 9.56 0 10.2 0 10.99V25.33C0 26.12 0.639993 26.76 1.42999 26.76H11.94C12.73 26.76 13.37 26.12 13.37 25.33H17.38C17.83 25.33 18.25 25.12 18.52 24.77C18.79 24.41 18.88 23.96 18.76 23.52L17.82 20.07H20.54V25.33C20.54 26.12 21.18 26.76 21.97 26.76H27.23C28.02 26.76 28.66 26.12 28.66 25.33V14.34C28.67 13.54 28.03 12.9 27.24 12.9ZM27.72 14.34V15.3H21.51V14.34C21.51 14.08 21.72 13.86 21.99 13.86H27.25C27.5 13.86 27.72 14.07 27.72 14.34ZM21.5 16.25H27.71V23.42H21.5V16.25ZM2.39001 2.38998C2.39001 1.59998 3.03001 0.959991 3.82001 0.959991H24.85C25.64 0.959991 26.28 1.59998 26.28 2.38998V12.9H21.98C21.19 12.9 20.55 13.54 20.55 14.33V15.29H13.38V10.99C13.38 10.2 12.74 9.56 11.95 9.56H2.39001V2.38998V2.38998ZM12.42 23.41H0.950012V12.9H12.42V23.41ZM1.42999 10.51H11.94C12.2 10.51 12.42 10.72 12.42 10.99V11.95H0.950012V10.99C0.950012 10.73 1.16999 10.51 1.42999 10.51ZM11.95 25.8H1.44C1.18 25.8 0.960022 25.59 0.960022 25.32V24.36H12.43V25.32C12.42 25.59 12.21 25.8 11.95 25.8ZM17.76 24.18C17.67 24.3 17.53 24.37 17.38 24.37H13.37V23.41H17.74L17.84 23.76C17.89 23.91 17.86 24.06 17.76 24.18ZM17.49 22.46H13.38V20.07H16.84L17.49 22.46ZM13.38 19.11V16.24H20.55V19.11H13.38ZM27.24 25.8H21.98C21.72 25.8 21.5 25.59 21.5 25.32V24.36H27.71V25.32C27.72 25.59 27.5 25.8 27.24 25.8Z" fill="black"/>
</svg>
