<svg width="16" height="16" viewBox="0 0 16 16" fill="none" xmlns="http://www.w3.org/2000/svg">
<path fill-rule="evenodd" clip-rule="evenodd" d="M4.93236 8.34956L5.43907 8.83888L7.43383 10.9984L7.43383 10.9983L5.43916 8.83888L4.93245 8.34956C4.77071 8.19337 4.57234 8.11219 4.37506 8.11228C4.57231 8.11222 4.77065 8.19339 4.93236 8.34956ZM8.1682 13.1263C8.4997 13.1257 8.8288 12.9702 9.12938 12.659L12.3624 9.31109C12.6653 8.99741 12.6689 8.52291 12.3431 8.20835C12.2089 8.07876 12.0465 8.0072 11.8803 7.99276C12.0464 8.00721 12.2089 8.07878 12.343 8.20835C12.6688 8.52291 12.6652 8.99741 12.3623 9.31109L9.1293 12.659C8.82874 12.9702 8.49967 13.1256 8.1682 13.1263ZM8.85681 10.9734L8.8779 7.76474L8.83183 4.10641C8.83414 3.8988 8.742 3.71656 8.59723 3.57676C8.42238 3.40791 8.21079 3.31914 8.0021 3.31964C8.21076 3.31917 8.42232 3.40793 8.59714 3.57676C8.74192 3.71656 8.83405 3.8988 8.83175 4.10641L8.87781 7.76474L8.85672 10.9735L8.85681 10.9734ZM7.65835 11.5362L7.48884 7.78621L7.42514 4.13689C7.42236 3.97787 7.48067 3.8257 7.60208 3.69999C7.84027 3.45333 8.18764 3.45934 8.45821 3.72063C8.57088 3.82943 8.63329 3.9612 8.6317 4.10419L8.6778 7.76534L8.65314 11.519L10.9111 8.88055L11.3962 8.37818C11.6313 8.13481 11.973 8.129 12.2041 8.35221C12.4484 8.58808 12.4466 8.93589 12.2184 9.17215L8.98543 12.52C8.71554 12.7995 8.43863 12.9229 8.17709 12.9263C7.91518 12.9297 7.63333 12.8132 7.35315 12.5426L4.00528 9.30959C3.75986 9.07259 3.74617 8.73107 3.97911 8.48985C4.21006 8.25069 4.54587 8.25436 4.79343 8.49343L5.29603 8.97878L7.65835 11.5362Z" fill="black"/>
</svg>
