<svg width="35" height="23" viewBox="0 0 35 23" fill="none" xmlns="http://www.w3.org/2000/svg">
<path d="M24.4401 6.89L24.4301 9.79H22.3101V0H24.4501H24.6901H26.2301C27.4901 0 28.1301 0.34 28.1401 1.02V5.8C28.1401 6.48 27.5301 6.81 26.3001 6.81H24.4501V6.89H24.4401ZM26.0101 1.13H24.4201V5.67H26.0101V1.13Z" fill="#0066CC"/>
<path d="M1.79 9.8L1.78 12.7H0V2.91H1.79H1.99H3.28C4.34 2.91 4.87 3.25 4.88 3.93V8.71C4.88 9.39 4.37 9.72 3.34 9.72H1.79V9.8ZM3.11 4.05H1.78V8.59H3.11V4.05V4.05Z" fill="#0066CC"/>
<path d="M10.36 9.72H6.97999C5.98999 9.72 5.48999 9.38 5.48999 8.7L5.49999 6.71C5.49999 6.04 6.00999 5.7 7.03999 5.69H8.58999V4.05H7.25999L7.24999 4.95H5.50999V3.93C5.50999 3.26 6.02999 2.93 7.06999 2.93L8.80999 2.91C9.83999 2.91 10.36 3.25 10.36 3.92V9.72ZM7.26999 8.58H8.60999L8.59999 6.83H7.26999V8.58V8.58Z" fill="#0066CC"/>
<path d="M14.25 9.72H12.69C11.66 9.72 11.15 9.38 11.15 8.71V3.93C11.16 3.25 11.69 2.91 12.75 2.91H14.04H14.26H16.03V11.69C16.03 12.37 15.51 12.71 14.48 12.71H12.71C11.68 12.71 11.16 12.37 11.16 11.69V10.68H12.93V11.58H14.26V9.8L14.25 9.72ZM12.92 8.58H14.25V4.05H12.92V8.58Z" fill="#0066CC"/>
<path d="M21.51 8.7C21.5 9.38 20.97 9.71 19.91 9.71H18.19C17.15 9.71 16.63 9.37 16.63 8.7V3.92C16.63 3.24 17.15 2.91 18.19 2.91H19.96C20.99 2.91 21.5 3.25 21.5 3.92V8.7H21.51ZM19.75 4.05H18.41V8.59H19.74L19.75 4.05Z" fill="#0066CC"/>
<path d="M34.67 1.07C34.67 0.389998 34.06 0.0599976 32.83 0.0599976H30.71C29.47 0.0599976 28.85 0.399998 28.85 1.07V9.81H30.97V6.82H32.57V9.32C32.57 15.72 27.4 20.89 21 20.89C17.29 20.89 13.98 19.14 11.86 16.43L12.92 15.62L8.66003 12.75L8.85003 18.8L10.21 17.72C12.71 20.92 16.62 22.98 21 22.98C28.56 22.98 34.68 16.85 34.68 9.3L34.67 1.07ZM32.56 5.68H30.96V1.18H32.56V5.68Z" fill="#0066CC"/>
</svg>
