<svg width="31" height="31" viewBox="0 0 31 31" fill="none" xmlns="http://www.w3.org/2000/svg">
<path d="M21.96 5.92C22.3 6.17 22.62 6.44 22.93 6.73C23.05 6.84 23.2 6.89 23.34 6.89C23.5 6.89 23.67 6.82 23.79 6.7C24.02 6.45 24.01 6.06999 23.76 5.83999C23.42 5.51999 23.06 5.21999 22.68 4.93999C22.41 4.73999 22.03 4.8 21.83 5.07C21.64 5.34 21.69 5.72 21.96 5.92Z" fill="black"/>
<path d="M5.23004 13.12C3.46004 13.12 2.02002 14.56 2.02002 16.33C2.02002 18.1 3.46004 19.54 5.23004 19.54C7.00004 19.54 8.44 18.1 8.44 16.33C8.44 14.56 7.00004 13.12 5.23004 13.12ZM5.23004 18.32C4.13004 18.32 3.24005 17.43 3.24005 16.33C3.24005 15.23 4.13004 14.34 5.23004 14.34C6.33004 14.34 7.22003 15.23 7.22003 16.33C7.23003 17.43 6.33004 18.32 5.23004 18.32Z" fill="black"/>
<path d="M18.37 5.25C18.37 3.48 16.93 2.04001 15.16 2.04001C13.39 2.04001 11.95 3.48 11.95 5.25C11.95 7.02 13.39 8.46002 15.16 8.46002C16.93 8.46002 18.37 7.02 18.37 5.25ZM13.16 5.25C13.16 4.15 14.05 3.26001 15.15 3.26001C16.25 3.26001 17.14 4.15 17.14 5.25C17.14 6.35 16.25 7.24002 15.15 7.24002C14.06 7.24002 13.16 6.34 13.16 5.25Z" fill="black"/>
<path d="M27.69 16.85C27.77 16.28 27.81 15.69 27.81 15.11C27.81 12.31 26.91 9.64999 25.22 7.42999C25.02 7.15999 24.63 7.11001 24.37 7.32001C24.1 7.52001 24.05 7.91001 24.26 8.17001C25.79 10.18 26.6 12.58 26.6 15.11C26.6 15.52 26.58 15.94 26.53 16.35C26.06 16.21 25.57 16.14 25.05 16.14C22.16 16.14 19.81 18.49 19.81 21.38C19.81 22.22 20.22 23.41 21.03 24.94C19.25 26.01 17.23 26.57 15.14 26.57C12.11 26.57 9.29001 25.42 7.14001 23.31C7.43001 22.88 7.74 22.41 8.06 21.91C9.66 19.38 10.47 17.5 10.47 16.33C10.47 13.44 8.12004 11.09 5.23004 11.09C4.94004 11.09 4.66001 11.11 4.39001 11.16C5.38001 8.47 7.36999 6.22 9.92999 4.91C9.91999 5.02 9.92004 5.13002 9.92004 5.24002C9.92004 6.42002 10.73 8.30001 12.33 10.82C13.49 12.65 14.63 14.14 14.68 14.21C14.8 14.36 14.97 14.45 15.16 14.45C15.35 14.45 15.53 14.36 15.64 14.21C15.69 14.15 16.8301 12.66 17.9901 10.82C19.5901 8.29001 20.4 6.41002 20.4 5.24002C20.4 2.35002 18.05 0 15.16 0C12.91 0 10.99 1.42001 10.25 3.42001C6.72 4.90001 4.02003 7.93001 2.97003 11.6C1.21003 12.45 0 14.24 0 16.32C0 17.5 0.810034 19.38 2.41003 21.9C3.57003 23.73 4.71001 25.22 4.76001 25.29C4.88001 25.44 5.05005 25.53 5.24005 25.53C5.43005 25.53 5.61003 25.44 5.72003 25.29C5.74003 25.26 6.02 24.89 6.44 24.31C7.5 25.31 8.71004 26.12 10.04 26.71C11.65 27.42 13.37 27.78 15.14 27.78C17.44 27.78 19.67 27.16 21.63 25.99C21.81 26.3 22.01 26.62 22.22 26.95C23.38 28.78 24.52 30.27 24.57 30.34C24.69 30.49 24.86 30.58 25.05 30.58C25.24 30.58 25.42 30.49 25.53 30.34C25.58 30.28 26.72 28.79 27.88 26.95C29.48 24.42 30.29 22.54 30.29 21.37C30.29 19.45 29.24 17.77 27.69 16.85ZM15.16 1.23001C17.38 1.23001 19.18 3.03 19.18 5.25C19.18 6.96 16.61 10.84 15.16 12.83C13.71 10.84 11.14 6.96 11.14 5.25C11.14 3.03 12.94 1.23001 15.16 1.23001ZM5.23004 23.91C3.78004 21.92 1.21002 18.04 1.21002 16.33C1.21002 14.11 3.01004 12.31 5.23004 12.31C7.45004 12.31 9.25 14.11 9.25 16.33C9.25 18.04 6.68004 21.92 5.23004 23.91ZM25.05 28.96C23.6 26.97 21.03 23.09 21.03 21.38C21.03 19.16 22.83 17.36 25.05 17.36C27.27 17.36 29.07 19.16 29.07 21.38C29.07 23.09 26.5 26.97 25.05 28.96Z" fill="black"/>
<path d="M25.05 18.16C23.28 18.16 21.84 19.6 21.84 21.37C21.84 23.14 23.28 24.58 25.05 24.58C26.82 24.58 28.26 23.14 28.26 21.37C28.26 19.6 26.82 18.16 25.05 18.16ZM25.05 23.37C23.95 23.37 23.06 22.48 23.06 21.38C23.06 20.28 23.95 19.39 25.05 19.39C26.15 19.39 27.04 20.28 27.04 21.38C27.04 22.47 26.15 23.37 25.05 23.37Z" fill="black"/>
</svg>
