<svg width="11" height="11" viewBox="0 0 11 11" fill="none" xmlns="http://www.w3.org/2000/svg">
<mask id="mask0_1:923" style="mask-type:alpha" maskUnits="userSpaceOnUse" x="0" y="0" width="11" height="11">
<path fill-rule="evenodd" clip-rule="evenodd" d="M11 7.13281C11 7.37013 10.8076 7.5625 10.5703 7.5625C10.333 7.5625 10.1406 7.37013 10.1406 7.13281V2.57812C10.1406 2.10427 9.75511 1.71875 9.28125 1.71875H8.72266V2.14844C8.72266 2.38575 8.53028 2.57812 8.29297 2.57812C8.05565 2.57812 7.86328 2.38575 7.86328 2.14844V1.71875H5.9082V2.14844C5.9082 2.38575 5.71583 2.57812 5.47852 2.57812C5.2412 2.57812 5.04883 2.38575 5.04883 2.14844V1.71875H3.11523V2.14844C3.11523 2.38575 2.92286 2.57812 2.68555 2.57812C2.44823 2.57812 2.25586 2.38575 2.25586 2.14844V1.71875H1.71875C1.24489 1.71875 0.859375 2.10427 0.859375 2.57812V9.28125C0.859375 9.75511 1.24489 10.1406 1.71875 10.1406H9.28125C9.75511 10.1406 10.1406 9.75511 10.1406 9.28125C10.1406 9.04393 10.333 8.85156 10.5703 8.85156C10.8076 8.85156 11 9.04393 11 9.28125C11 10.229 10.229 11 9.28125 11H1.71875C0.771031 11 0 10.229 0 9.28125V2.57812C0 1.63041 0.771031 0.859375 1.71875 0.859375H2.25586V0.429688C2.25586 0.192371 2.44823 0 2.68555 0C2.92286 0 3.11523 0.192371 3.11523 0.429688V0.859375H5.04883V0.429688C5.04883 0.192371 5.2412 0 5.47852 0C5.71583 0 5.9082 0.192371 5.9082 0.429688V0.859375H7.86328V0.429688C7.86328 0.192371 8.05565 0 8.29297 0C8.53028 0 8.72266 0.192371 8.72266 0.429688V0.859375H9.28125C10.229 0.859375 11 1.63041 11 2.57812V7.13281ZM8.29297 4.94141C8.53028 4.94141 8.72266 4.74903 8.72266 4.51172C8.72266 4.27441 8.53028 4.08203 8.29297 4.08203C8.05566 4.08203 7.86328 4.27441 7.86328 4.51172C7.86328 4.74903 8.05566 4.94141 8.29297 4.94141ZM5.99414 7.82031C5.99414 8.29417 6.37966 8.67969 6.85352 8.67969H7.86328C8.33714 8.67969 8.72266 8.29417 8.72266 7.82031V6.81055C8.72266 6.33669 8.33714 5.95117 7.86328 5.95117H6.85352C6.37966 5.95117 5.99414 6.33669 5.99414 6.81055V7.82031ZM6.85352 6.81055H7.86328L7.86382 7.82029L7.86328 7.82031H6.85352V6.81055ZM6.85352 4.51172C6.85352 4.74903 6.66114 4.94141 6.42383 4.94141C6.18652 4.94141 5.99414 4.74903 5.99414 4.51172C5.99414 4.27441 6.18652 4.08203 6.42383 4.08203C6.66114 4.08203 6.85352 4.27441 6.85352 4.51172ZM3.11523 8.25C3.11523 8.48731 2.92286 8.67969 2.68555 8.67969C2.44824 8.67969 2.25586 8.48731 2.25586 8.25C2.25586 8.01269 2.44824 7.82031 2.68555 7.82031C2.92286 7.82031 3.11523 8.01269 3.11523 8.25ZM2.68555 4.94141C2.92286 4.94141 3.11523 4.74903 3.11523 4.51172C3.11523 4.27441 2.92286 4.08203 2.68555 4.08203C2.44824 4.08203 2.25586 4.27441 2.25586 4.51172C2.25586 4.74903 2.44824 4.94141 2.68555 4.94141ZM3.11523 6.38086C3.11523 6.61817 2.92286 6.81055 2.68555 6.81055C2.44824 6.81055 2.25586 6.61817 2.25586 6.38086C2.25586 6.14355 2.44824 5.95117 2.68555 5.95117C2.92286 5.95117 3.11523 6.14355 3.11523 6.38086ZM4.55469 6.81055C4.792 6.81055 4.98438 6.61817 4.98438 6.38086C4.98438 6.14355 4.792 5.95117 4.55469 5.95117C4.31738 5.95117 4.125 6.14355 4.125 6.38086C4.125 6.61817 4.31738 6.81055 4.55469 6.81055ZM4.98438 4.51172C4.98438 4.74903 4.792 4.94141 4.55469 4.94141C4.31738 4.94141 4.125 4.74903 4.125 4.51172C4.125 4.27441 4.31738 4.08203 4.55469 4.08203C4.792 4.08203 4.98438 4.27441 4.98438 4.51172ZM4.55469 8.67969C4.792 8.67969 4.98438 8.48731 4.98438 8.25C4.98438 8.01269 4.792 7.82031 4.55469 7.82031C4.31738 7.82031 4.125 8.01269 4.125 8.25C4.125 8.48731 4.31738 8.67969 4.55469 8.67969Z" fill="white"/>
</mask>
<g mask="url(#mask0_1:923)">
<rect x="-2.28113" y="-11.9167" width="45.8333" height="45.8333" fill="black"/>
</g>
</svg>
