<svg width="51" height="8" viewBox="0 0 51 8" fill="none" xmlns="http://www.w3.org/2000/svg">
<path d="M1.23006 6.49H2.77007C3.48007 6.49 4.07007 6.18 4.07007 5.36C4.07007 4.54 3.48007 4.23 2.77007 4.23H1.23006V6.49ZM1.23006 3.43H2.37006C3.24006 3.46 3.86006 3.3 3.86006 2.43C3.86006 1.55 3.24006 1.4 2.37006 1.43H1.23006V3.43ZM0.310059 7.29V0.639999H2.69006C3.83006 0.639999 4.84006 1.08 4.84006 2.37C4.84006 3.06 4.37007 3.62 3.71007 3.81V3.83C4.57007 3.96 5.04005 4.72 5.04005 5.55C5.04005 6.32 4.54006 6.9 3.83006 7.16C3.49006 7.29 3.09006 7.3 2.69006 7.29H0.310059Z" fill="#1D1D1B"/>
<path d="M7.83003 5.04C7.30003 5.06 6.59003 5.26 6.59003 5.93C6.59003 6.5 6.99003 6.79 7.50003 6.79C8.53003 6.79 8.73004 5.9 8.71004 5.04H7.83003ZM8.70003 4.43C8.70003 3.63 8.65003 3.16 7.72003 3.16C7.28003 3.16 6.86004 3.42 6.85004 3.9H5.93002C5.97002 2.88 6.77002 2.53 7.68002 2.53C8.63002 2.53 9.57004 2.81 9.57004 4.1V6.31C9.57004 6.51 9.58003 6.9 9.61003 7.29H9.02003C8.93003 7.29 8.78003 7.34 8.77003 7.23C8.75003 7.02 8.73003 6.82 8.72003 6.61H8.70003C8.41003 7.19 7.90002 7.44 7.26003 7.44C6.46003 7.44 5.65002 7.03 5.65002 6.12C5.65002 4.82 6.80002 4.44 7.90002 4.44H8.70003V4.43Z" fill="#1D1D1B"/>
<path d="M11.5701 3.34H11.5901C11.8901 2.76 12.5301 2.52 12.9901 2.52C13.3101 2.52 14.7401 2.6 14.7401 4.09V7.28H13.8601V4.37C13.8601 3.6 13.5401 3.19 12.8001 3.19C12.8001 3.19 12.3301 3.16 11.9501 3.53C11.8201 3.66 11.5801 3.86 11.5801 4.77V7.28H10.7101V2.66H11.5701V3.34Z" fill="#1D1D1B"/>
<path d="M18.5001 4.14C18.4501 3.56 18.1801 3.15 17.5501 3.15C16.7101 3.15 16.3901 3.88 16.3901 4.97C16.3901 6.06 16.7201 6.79 17.5501 6.79C18.1301 6.79 18.4901 6.41 18.5401 5.75H19.4101C19.3301 6.79 18.5601 7.43 17.5401 7.43C16.0601 7.43 15.4701 6.38 15.4701 5.01C15.4701 3.66 16.1501 2.52 17.6101 2.52C18.5901 2.52 19.3301 3.14 19.3701 4.14H18.5001Z" fill="#1D1D1B"/>
<path d="M22.1201 6.79C23.1601 6.79 23.5001 5.96 23.5001 4.97C23.5001 3.98 23.1601 3.16 22.1201 3.16C21.0801 3.16 20.7401 3.99 20.7401 4.97C20.7401 5.96 21.0801 6.79 22.1201 6.79ZM24.4301 4.97C24.4301 6.41 23.6501 7.42 22.1201 7.42C20.6001 7.42 19.8201 6.41 19.8201 4.97C19.8201 3.53 20.6001 2.52 22.1201 2.52C23.6501 2.52 24.4301 3.54 24.4301 4.97Z" fill="#1D1D1B"/>
<path d="M27.9901 3.62C28.7201 3.59 29.0201 3.26 29.0201 2.77C29.0201 2.28 28.7101 1.95 27.9901 1.92H27.0401V3.62H27.9901ZM25.1901 7.29V0.639999H28.2501C29.8801 0.639999 30.9501 1.17 30.9501 2.78C30.9501 4.39 29.8801 4.92 28.2501 4.92H27.0301V7.3H25.1901V7.29Z" fill="#1D1D1B"/>
<path d="M33.7601 6.41C34.5001 6.41 34.6501 5.63 34.6501 4.97C34.6501 4.32 34.5001 3.53 33.7601 3.53C33.0201 3.53 32.8701 4.31 32.8701 4.97C32.8701 5.63 33.0301 6.41 33.7601 6.41ZM36.4501 4.97C36.4501 6.67 35.2001 7.42 33.7601 7.42C32.3101 7.42 31.0701 6.67 31.0701 4.97C31.0701 3.27 32.3201 2.52 33.7601 2.52C35.2101 2.52 36.4501 3.27 36.4501 4.97Z" fill="#1D1D1B"/>
<path d="M39.39 4.09C39.39 3.93 39.36 3.79 39.28 3.7C39.19 3.6 39.04 3.53 38.8 3.53C38.54 3.53 38.38 3.68 38.38 3.94C38.38 4.28 39.09 4.26 40.19 4.61C40.75 4.78 41.12 5.13 41.12 5.88C41.12 7.11 39.97 7.42 38.91 7.42C37.78 7.42 36.67 7.19 36.68 5.78H38.34C38.31 5.92 38.36 6.07 38.46 6.19C38.57 6.31 38.71 6.4 38.88 6.4C39.23 6.4 39.47 6.27 39.47 5.97C39.47 5.15 36.73 5.64 36.73 3.96C36.73 2.82 37.95 2.5 38.87 2.5C39.97 2.5 40.98 2.78 41.05 4.07H39.39V4.09Z" fill="#1D1D1B"/>
<path d="M42.3301 2.66V1.96L44.0801 1.3V2.66H45.1001V3.77H44.0801V5.6C44.0801 5.72 44.0101 6.32 44.4201 6.32C44.6501 6.32 44.8901 6.32 45.0901 6.29V7.33C44.6901 7.4 44.4101 7.42 44.1501 7.42C42.9601 7.42 42.2401 7.25 42.3301 5.84V3.76H41.4301V2.65H42.3301V2.66Z" fill="#1D1D1B"/>
<path d="M47.83 6.41C48.59 6.41 48.65 5.7 48.65 5.08C48.28 5.08 47.93 5.06 47.69 5.18C47.43 5.31 47.23 5.48 47.23 5.8C47.24 6.14 47.5 6.41 47.83 6.41ZM48.72 7.29C48.68 7.15 48.68 7 48.68 6.67H48.66C48.45 7 48.05 7.43 47.18 7.43C46.09 7.43 45.51 6.84 45.53 5.89C45.55 4.76 46.58 4.3 48.09 4.3H48.64C48.64 3.89 48.73 3.3 48.03 3.33C47.6 3.35 47.47 3.76 47.47 4.04H45.82C45.81 3.39 46.15 3.01 46.62 2.8C47.1 2.58 47.7 2.52 48.21 2.52C49.15 2.52 50.28 2.91 50.26 3.96V6.34C50.26 6.53 50.3 6.74 50.36 7.29H48.72Z" fill="#1D1D1B"/>
</svg>
