<svg width="168" height="59" viewBox="0 0 168 59" fill="none" xmlns="http://www.w3.org/2000/svg">
<path d="M76.0599 42.58C76.0799 42.36 76.1399 42.18 76.3999 42.17C76.5099 42.16 76.5999 42.21 76.6599 42.29C76.7199 42.37 76.7499 42.48 76.7499 42.58H76.0599V42.58ZM77.4399 42.98C77.4399 42.25 77.1899 41.8 76.3999 41.8C75.8199 41.8 75.3499 42.15 75.3499 42.77C75.3499 43.53 75.6599 43.87 76.4399 43.87C76.6699 43.87 76.8899 43.83 77.0599 43.72C77.2499 43.61 77.4099 43.43 77.4299 43.18H76.7499C76.7199 43.36 76.5899 43.46 76.3899 43.46C76.1099 43.46 76.0499 43.24 76.0499 42.99H77.4399V42.98ZM74.9499 41.01H74.2099V43.81H74.9499V41.01ZM73.7299 43.81C73.6999 43.58 73.6899 43.49 73.6899 43.41V42.41C73.6999 41.97 73.2199 41.8 72.8299 41.8C72.6099 41.8 72.3599 41.82 72.1599 41.92C71.9599 42.01 71.8199 42.17 71.8199 42.44H72.5099C72.5099 42.32 72.5599 42.15 72.7399 42.14C73.0299 42.13 72.9999 42.38 72.9999 42.55H72.7699C72.1299 42.55 71.6999 42.74 71.6899 43.22C71.6799 43.62 71.9199 43.87 72.3799 43.87C72.7399 43.87 72.9099 43.69 72.9999 43.55H73.0099C73.0099 43.69 73.0099 43.75 73.0299 43.81H73.7299V43.81ZM72.3999 43.18C72.3999 43.04 72.4799 42.97 72.5899 42.92C72.6899 42.87 72.8399 42.88 72.9899 42.88C72.9899 43.14 72.9599 43.44 72.6399 43.44C72.5099 43.44 72.3999 43.32 72.3999 43.18ZM69.8899 41.86V42.32H70.2699V43.19C70.2299 43.79 70.5299 43.86 71.0299 43.86C71.1399 43.86 71.2599 43.85 71.4299 43.82V43.38C71.3399 43.39 71.2399 43.39 71.1499 43.39C70.9799 43.39 71.0099 43.14 71.0099 43.09V42.32H71.4399V41.86H71.0099V41.29L70.2699 41.57V41.86H69.8899V41.86ZM69.6599 42.46C69.6299 41.92 69.1999 41.8 68.7399 41.8C68.3499 41.8 67.8399 41.93 67.8399 42.41C67.8399 43.12 68.9899 42.91 68.9899 43.25C68.9899 43.37 68.8899 43.43 68.7399 43.43C68.6699 43.43 68.6099 43.39 68.5699 43.34C68.5299 43.29 68.5099 43.22 68.5199 43.17H67.8199C67.8199 43.76 68.2799 43.86 68.7599 43.86C69.2099 43.86 69.6899 43.73 69.6899 43.21C69.6899 42.89 69.5299 42.75 69.2999 42.67C68.8399 42.53 68.5399 42.53 68.5399 42.39C68.5399 42.28 68.5999 42.21 68.7099 42.21C68.8099 42.21 68.8699 42.24 68.9099 42.28C68.9399 42.32 68.9599 42.38 68.9599 42.44H69.6599V42.46ZM66.3899 41.8C65.7799 41.8 65.2599 42.11 65.2599 42.83C65.2599 43.55 65.7799 43.86 66.3899 43.86C66.9999 43.86 67.5199 43.54 67.5199 42.83C67.5199 42.12 66.9999 41.8 66.3899 41.8ZM66.0099 42.83C66.0099 42.55 66.0799 42.22 66.3899 42.22C66.6999 42.22 66.7699 42.55 66.7699 42.83C66.7699 43.11 66.6999 43.43 66.3899 43.43C66.0799 43.44 66.0099 43.11 66.0099 42.83ZM63.8199 42.23C64.1299 42.23 64.1799 42.59 64.1799 42.84C64.1799 43.09 64.1299 43.44 63.8199 43.44C63.5099 43.44 63.4599 43.08 63.4599 42.84C63.4599 42.58 63.5099 42.23 63.8199 42.23ZM63.4599 41.86H62.7199V44.55H63.4599V43.57H63.4699C63.6099 43.74 63.7999 43.86 64.0199 43.86C64.6399 43.86 64.9299 43.37 64.9299 42.8C64.9299 42.29 64.6799 41.8 64.0999 41.8C63.8099 41.8 63.6199 41.91 63.4699 42.13H63.4599V41.86ZM59.9299 41.8C59.3199 41.8 58.7999 42.11 58.7999 42.83C58.7999 43.55 59.3199 43.86 59.9299 43.86C60.5399 43.86 61.0599 43.54 61.0599 42.83C61.0599 42.12 60.5399 41.8 59.9299 41.8ZM59.5499 42.83C59.5499 42.55 59.6199 42.22 59.9299 42.22C60.2399 42.22 60.3099 42.55 60.3099 42.83C60.3099 43.11 60.2399 43.43 59.9299 43.43C59.6199 43.44 59.5499 43.11 59.5499 42.83ZM57.0299 41.86H56.2799C56.2999 42.07 56.2999 42.18 56.2999 42.36V43.81H57.0399V42.69C57.0399 42.67 56.9899 42.27 57.3599 42.27C57.5899 42.27 57.6399 42.48 57.6399 42.67V43.81H58.3799V42.51C58.3799 42.08 58.0699 41.81 57.6499 41.81C57.3999 41.81 57.2099 41.89 57.0399 42.08L57.0299 41.86ZM55.7699 41.01H55.0199V41.53H55.7699V41.01ZM55.7699 41.86H55.0299V43.81H55.7699V41.86ZM53.0799 41.86V42.32H53.4599V43.19C53.4199 43.79 53.7199 43.86 54.2199 43.86C54.3299 43.86 54.4499 43.85 54.6199 43.82V43.38C54.5299 43.39 54.4299 43.39 54.3399 43.39C54.1699 43.39 54.1999 43.14 54.1999 43.09V42.32H54.6299V41.86H54.1999V41.29L53.4599 41.57V41.86H53.0799V41.86ZM51.3599 41.86V42.32H51.7399V43.19C51.6999 43.79 51.9999 43.86 52.4999 43.86C52.6099 43.86 52.7299 43.85 52.8999 43.82V43.38C52.8199 43.39 52.7099 43.39 52.6199 43.39C52.4499 43.39 52.4799 43.14 52.4799 43.09V42.32H52.9099V41.86H52.4799V41.29L51.7399 41.57V41.86H51.3599V41.86ZM49.7799 42.58C49.7999 42.36 49.8599 42.18 50.1199 42.17C50.2299 42.16 50.3199 42.21 50.3799 42.29C50.4399 42.37 50.4699 42.48 50.4699 42.58H49.7799V42.58ZM51.1599 42.98C51.1599 42.25 50.9099 41.8 50.1199 41.8C49.5399 41.8 49.0699 42.15 49.0699 42.77C49.0699 43.53 49.3799 43.87 50.1599 43.87C50.3899 43.87 50.6099 43.83 50.7799 43.72C50.9699 43.61 51.1299 43.43 51.1499 43.18H50.4699C50.4399 43.36 50.3199 43.46 50.1099 43.46C49.8299 43.46 49.7699 43.24 49.7699 42.99H51.1599V42.98ZM48.6599 41.01H47.9199V43.81H48.6599V41.01ZM47.3699 41.01H46.6299V43.81H47.3699V41.01ZM45.0699 41.8C44.4599 41.8 43.9399 42.11 43.9399 42.83C43.9399 43.55 44.4599 43.86 45.0699 43.86C45.6799 43.86 46.1999 43.54 46.1999 42.83C46.1999 42.12 45.6699 41.8 45.0699 41.8ZM44.6899 42.83C44.6899 42.55 44.7599 42.22 45.0699 42.22C45.3799 42.22 45.4499 42.55 45.4499 42.83C45.4499 43.11 45.3799 43.43 45.0699 43.43C44.7599 43.44 44.6899 43.11 44.6899 42.83ZM41.4099 43.81H42.1299L42.1499 43.52H42.1699C42.2199 43.72 42.4899 43.87 42.7099 43.87C43.3499 43.87 43.6199 43.4 43.6199 42.81C43.6199 42.26 43.3499 41.81 42.7599 41.81C42.5399 41.81 42.2999 41.9 42.1699 42.07H42.1599V41.01H41.4199V43.81H41.4099ZM42.4999 42.23C42.8099 42.23 42.8499 42.59 42.8499 42.83C42.8499 43.08 42.7999 43.44 42.4699 43.44C42.1999 43.44 42.1399 43.08 42.1399 42.86C42.1399 42.6 42.1699 42.23 42.4999 42.23Z" fill="#1D1D1B"/>
<path d="M55.83 37.52C55.22 37.52 54.7 37.83 54.7 38.55C54.7 39.27 55.22 39.58 55.83 39.58C56.44 39.58 56.96 39.27 56.96 38.55C56.96 37.83 56.44 37.52 55.83 37.52ZM55.45 38.55C55.45 38.28 55.52 37.95 55.83 37.95C56.14 37.95 56.21 38.28 56.21 38.55C56.21 38.83 56.14 39.16 55.83 39.16C55.52 39.16 55.45 38.82 55.45 38.55ZM52.86 37.57V38.04H53.24V38.91C53.2 39.51 53.5 39.58 54 39.58C54.11 39.58 54.23 39.57 54.4 39.54V39.1C54.32 39.11 54.21 39.11 54.12 39.11C53.95 39.11 53.98 38.86 53.98 38.81V38.04H54.41V37.57H53.98V37L53.24 37.28V37.57H52.86V37.57ZM52.54 36.72H51.8V37.24H52.55V36.72H52.54ZM52.54 37.57H51.8V39.52H52.54V37.57V37.57ZM50.54 39.52H51.29C51.27 39.31 51.27 39.19 51.27 39.02V37.57H50.53V38.69C50.53 38.71 50.58 39.11 50.21 39.11C49.98 39.11 49.93 38.9 49.93 38.71V37.56H49.19V38.86C49.19 39.29 49.5 39.56 49.92 39.56C50.17 39.56 50.36 39.48 50.53 39.29L50.54 39.52ZM48.79 38.26C48.76 37.71 48.29 37.51 47.8 37.52C47.21 37.52 46.73 37.84 46.73 38.55C46.73 39.23 47.06 39.58 47.8 39.58C48.06 39.57 48.3 39.51 48.49 39.37C48.67 39.23 48.79 39.03 48.79 38.76H48.05C48.05 38.93 48.02 39.13 47.76 39.15C47.49 39.15 47.48 38.75 47.48 38.54C47.48 38.34 47.49 37.94 47.76 37.94C47.87 37.94 47.95 37.97 47.99 38.03C48.03 38.08 48.05 38.16 48.05 38.26H48.79V38.26ZM45.83 37.57H45.08C45.1 37.78 45.1 37.9 45.1 38.07V39.52H45.84V38.74C45.83 38.37 45.96 38.14 46.35 38.14C46.4 38.14 46.45 38.14 46.5 38.14V37.52C46.17 37.51 45.93 37.62 45.85 37.94H45.84L45.83 37.57ZM44.57 36.72H43.83V37.24H44.57V36.72ZM44.57 37.57H43.83V39.52H44.57V37.57ZM43.41 38.26C43.37 37.71 42.91 37.51 42.42 37.52C41.83 37.52 41.35 37.84 41.35 38.55C41.35 39.23 41.68 39.58 42.42 39.58C42.68 39.57 42.92 39.51 43.11 39.37C43.29 39.23 43.41 39.03 43.41 38.76H42.67C42.67 38.93 42.64 39.13 42.38 39.15C42.11 39.15 42.1 38.75 42.1 38.54C42.1 38.34 42.11 37.94 42.38 37.94C42.49 37.94 42.57 37.97 42.61 38.03C42.65 38.09 42.67 38.16 42.67 38.26H43.41V38.26Z" fill="#1D1D1B"/>
<path d="M15.6699 27.41C7.06994 27.41 0.0699463 34.41 0.0699463 43.01C0.0699463 51.61 7.05995 58.6 15.6699 58.6C24.2699 58.6 31.2599 51.6 31.2599 43.01C31.2599 34.41 24.2699 27.41 15.6699 27.41Z" fill="#1D1D1B"/>
<path d="M29.2099 40.59L29.4999 42.47L28.1599 41.12L30.0299 41.43L28.3399 42.28L29.2099 40.59Z" fill="white"/>
<path d="M28.92 39.44L29.51 39.01H28.79L28.56 38.32L28.34 39.01H27.61L28.2 39.44L27.97 40.13L28.56 39.7L29.15 40.13L28.92 39.44Z" fill="white"/>
<path d="M29.5 42.94L29.46 44.83L28.38 43.27L30.17 43.9L28.35 44.45L29.5 42.94Z" fill="white"/>
<path d="M29.38 45.29L29.01 47.16L28.22 45.43L29.88 46.36L27.99 46.58L29.38 45.29Z" fill="white"/>
<path d="M28.8599 47.59L28.1699 49.36L27.6899 47.53L29.1599 48.73L27.2599 48.62L28.8599 47.59Z" fill="white"/>
<path d="M2.42998 40.59L2.13998 42.47L3.46998 41.12L1.59998 41.43L3.29998 42.28L2.42998 40.59Z" fill="white"/>
<path d="M2.12996 42.94L2.16996 44.83L3.25996 43.27L1.45996 43.9L3.27996 44.45L2.12996 42.94Z" fill="white"/>
<path d="M3.07 38.32L2.49 40.13L4.02 39.01H2.12L3.66 40.13L3.07 38.32Z" fill="white"/>
<path d="M2.24989 45.29L2.61989 47.16L3.41989 45.43L1.75989 46.36L3.63989 46.58L2.24989 45.29Z" fill="white"/>
<path d="M2.76998 47.59L3.45998 49.36L3.94998 47.53L2.47998 48.73L4.36998 48.62L2.76998 47.59Z" fill="white"/>
<path d="M25.88 36.19L27.64 35.11L28.35 36.27L28.04 36.46L27.54 35.64L27.13 35.89L27.56 36.58L27.25 36.77L26.82 36.08L26.39 36.34L26.89 37.15L26.58 37.34L25.88 36.19ZM24.9 34.95L26.5 33.65L26.75 33.96L25.43 35.03L26.02 35.76L25.74 35.99L24.9 34.95ZM25.15 33.14L24.44 33.51L24.82 33.86L25.15 33.14ZM24.5 34.53L24.66 34.18L24.12 33.68L23.78 33.86L23.47 33.57L25.43 32.58L25.66 32.8L24.8 34.82L24.5 34.53ZM24.16 31.98L23.16 33.36L22.83 33.12L23.83 31.74L23.39 31.42L23.6 31.13L24.8 32L24.59 32.29L24.16 31.98ZM21.6 32.38C21.32 32.23 21.15 32.06 21.07 31.78L21.42 31.68C21.47 31.86 21.61 31.98 21.77 32.07C21.98 32.18 22.13 32.17 22.21 32.02C22.24 31.96 22.26 31.89 22.24 31.84C22.22 31.79 22.19 31.75 22.12 31.69L21.92 31.54C21.78 31.43 21.69 31.32 21.65 31.2C21.61 31.07 21.63 30.93 21.71 30.77C21.89 30.45 22.25 30.35 22.64 30.56C22.89 30.7 23.04 30.86 23.11 31.09L22.76 31.19C22.71 31.02 22.58 30.93 22.46 30.86C22.27 30.76 22.12 30.81 22.06 30.94C22.04 30.99 22.02 31.04 22.04 31.1C22.06 31.15 22.1 31.21 22.17 31.26L22.37 31.41C22.52 31.52 22.6 31.63 22.64 31.74C22.69 31.88 22.66 32.04 22.57 32.2C22.38 32.55 21.98 32.59 21.6 32.38ZM20.91 30.26C20.88 30.18 20.81 30.11 20.71 30.07C20.61 30.03 20.5 30.04 20.43 30.08C20.33 30.13 20.27 30.22 20.13 30.59C19.99 30.96 19.98 31.06 20.02 31.17C20.05 31.25 20.12 31.33 20.23 31.37C20.33 31.41 20.43 31.4 20.51 31.36C20.61 31.31 20.67 31.22 20.81 30.85C20.94 30.47 20.96 30.37 20.91 30.26ZM20.7 31.68C20.51 31.76 20.32 31.78 20.1 31.7C19.88 31.62 19.74 31.48 19.66 31.29C19.54 31.02 19.63 30.78 19.76 30.45C19.88 30.12 19.97 29.87 20.24 29.75C20.43 29.66 20.62 29.65 20.84 29.74C21.06 29.82 21.2 29.96 21.28 30.15C21.4 30.42 21.31 30.66 21.18 30.99C21.06 31.32 20.97 31.56 20.7 31.68ZM18.9 29.54L18.53 29.46L18.41 30.01L18.78 30.09C18.96 30.13 19.1 30.04 19.13 29.88C19.17 29.72 19.08 29.58 18.9 29.54ZM18.72 30.45L18.33 30.36L18.16 31.12L17.76 31.03L18.21 29.01L19 29.2C19.42 29.29 19.6 29.63 19.53 29.98C19.45 30.31 19.14 30.54 18.72 30.45ZM16.08 30.72C16.48 30.73 16.72 30.37 16.73 29.92C16.74 29.53 16.55 29.12 16.13 29.11C15.71 29.1 15.49 29.49 15.48 29.91C15.46 30.32 15.68 30.71 16.08 30.72ZM16.06 30.93C15.54 30.92 15.19 30.51 15.21 29.92C15.22 29.3 15.62 28.9 16.14 28.92C16.68 28.93 17.01 29.35 17 29.93C16.97 30.59 16.56 30.94 16.06 30.93ZM13.5 31.08L13.25 29.14L13.53 29.1L14.27 30C14.44 30.21 14.58 30.4 14.7 30.59H14.71C14.65 30.33 14.62 30.1 14.58 29.8L14.48 28.99L14.72 28.96L14.97 30.9L14.72 30.93L13.98 30.03C13.82 29.83 13.66 29.63 13.54 29.43H13.53C13.58 29.67 13.61 29.91 13.65 30.23L13.76 31.06L13.5 31.08ZM12.7 29.27L13.14 31.17L12.89 31.23L12.45 29.33L12.7 29.27ZM11.4 29.86L10.83 30.04L10.76 29.84L12.14 29.4L12.21 29.61L11.64 29.79L12.17 31.45L11.93 31.53L11.4 29.86ZM9.85 30.47L9.31001 30.72L9.22001 30.52L10.54 29.92L10.63 30.11L10.09 30.36L10.81 31.94L10.58 32.05L9.85 30.47ZM9.42 31.61L8.77 32L9.13 32.6L9.85 32.16L9.96 32.34L9.02 32.91L8.01 31.24L8.92 30.7L9.03 30.88L8.34 31.3L8.66 31.83L9.31001 31.44L9.42 31.61ZM6.81001 32.12L7.01 31.97L8.07 33.36L8.74001 32.85L8.87 33.02L8 33.68L6.81001 32.12ZM5.7 33.13L5.89 32.95L7.09 34.22L7.7 33.65L7.85 33.8L7.06001 34.55L5.7 33.13ZM6.15001 35.29C6.40001 34.98 6.26 34.57 5.92 34.29C5.62 34.04 5.18 33.95 4.91 34.27C4.64 34.59 4.81 35 5.14 35.27C5.46 35.53 5.90001 35.6 6.15001 35.29ZM6.3 35.43C5.97 35.83 5.43001 35.86 4.97001 35.48C4.49001 35.09 4.42 34.53 4.75 34.13C5.09 33.71 5.62 33.7 6.07 34.07C6.6 34.5 6.62 35.04 6.3 35.43ZM4.99001 36.95C5.02001 36.91 5.06 36.85 5.11 36.77C5.25 36.55 5.29 36.29 5.05 36.14C4.82 36 4.61001 36.14 4.47001 36.38L4.36 36.56L4.99001 36.95ZM4.19 36.46L4.31001 36.27C4.45001 36.04 4.41 35.84 4.25 35.74C4.06 35.62 3.89 35.72 3.76 35.94C3.7 36.04 3.67 36.1 3.66 36.14L4.19 36.46ZM3.38 36.26C3.41 36.15 3.49001 35.99 3.58001 35.84C3.71001 35.62 3.83 35.51 3.98 35.46C4.1 35.41 4.23 35.42 4.36 35.5C4.52 35.6 4.60001 35.79 4.56001 36.01H4.57C4.7 35.87 4.95 35.77 5.2 35.92C5.34 36.01 5.42 36.13 5.45 36.27C5.49 36.45 5.42 36.67 5.26 36.94C5.17 37.09 5.09 37.2 5.04 37.26L3.38 36.26Z" fill="white"/>
<path d="M5.75991 50.84L5.48991 50.5L4.97991 50.9L5.24991 51.24C5.37991 51.4 5.56991 51.43 5.71991 51.31C5.86991 51.19 5.88991 51.01 5.75991 50.84ZM4.92991 51.52L4.64991 51.16L3.94991 51.72L3.65991 51.35L5.52991 49.87L6.09991 50.6C6.40991 50.99 6.31991 51.43 6.00991 51.68C5.68991 51.93 5.23991 51.91 4.92991 51.52Z" fill="white"/>
<path d="M7.21993 52.52C7.21993 52.42 7.17992 52.31 7.08992 52.23C6.99992 52.14 6.87992 52.11 6.77992 52.12C6.64992 52.13 6.54993 52.2 6.23993 52.54C5.92993 52.88 5.86992 52.97 5.86992 53.11C5.86992 53.21 5.90992 53.32 6.00992 53.41C6.09992 53.5 6.20992 53.53 6.31992 53.52C6.44992 53.51 6.54992 53.44 6.85992 53.11C7.15992 52.75 7.21993 52.65 7.21993 52.52ZM6.37993 53.94C6.13993 53.95 5.92992 53.88 5.72992 53.7C5.52992 53.52 5.43992 53.31 5.42992 53.07C5.41992 52.73 5.61993 52.51 5.89993 52.21C6.17993 51.91 6.36992 51.68 6.70992 51.67C6.94992 51.66 7.15992 51.73 7.35992 51.91C7.55992 52.09 7.64992 52.3 7.65992 52.54C7.66992 52.88 7.46992 53.1 7.18992 53.4C6.91992 53.71 6.71993 53.93 6.37993 53.94Z" fill="white"/>
<path d="M7.48994 55.08C7.18994 54.88 6.99994 54.67 6.93994 54.34L7.35994 54.25C7.39994 54.46 7.53994 54.61 7.72994 54.74C7.95994 54.89 8.13994 54.89 8.23994 54.73C8.28994 54.66 8.30994 54.59 8.28994 54.52C8.27994 54.46 8.23994 54.41 8.15994 54.33L7.93994 54.14C7.78994 54 7.69994 53.87 7.65994 53.72C7.62994 53.56 7.65994 53.4 7.77994 53.23C8.01994 52.88 8.43994 52.8 8.86994 53.09C9.13994 53.27 9.29994 53.47 9.35994 53.75L8.94994 53.83C8.90994 53.63 8.76994 53.51 8.62994 53.42C8.41994 53.28 8.24994 53.33 8.15994 53.47C8.12994 53.52 8.10994 53.58 8.11994 53.65C8.13994 53.71 8.17994 53.79 8.24994 53.85L8.45994 54.04C8.61994 54.19 8.70994 54.31 8.73994 54.44C8.77994 54.61 8.72994 54.79 8.60994 54.96C8.36994 55.35 7.89994 55.36 7.48994 55.08Z" fill="white"/>
<path d="M10.46 54.47L9.62996 56.25L9.20996 56.05L10.04 54.27L9.47996 54L9.65996 53.63L11.2 54.35L11.03 54.73L10.46 54.47Z" fill="white"/>
<path d="M10.7599 56.71L11.4399 54.43L12.9399 54.88L12.8199 55.28L11.7599 54.96L11.5999 55.5L12.4999 55.77L12.3899 56.16L11.4799 55.89L11.3199 56.45L12.3799 56.76L12.2599 57.16L10.7599 56.71Z" fill="white"/>
<path d="M14.706 55.1168L14.5623 57.4926L15.0314 57.5209L15.1752 55.1452L14.706 55.1168Z" fill="white"/>
<path d="M16.56 55.55L16.66 57.51L16.1899 57.54L16.09 55.57L15.47 55.6L15.45 55.19L17.16 55.1L17.18 55.52L16.56 55.55Z" fill="white"/>
<path d="M18.1199 55.63L17.9899 56.54L18.5699 56.43L18.1199 55.63ZM18.9799 57.18L18.7599 56.79L17.9299 56.95L17.8699 57.39L17.3899 57.48L17.7999 54.98L18.1599 54.91L19.4599 57.09L18.9799 57.18Z" fill="white"/>
<path d="M19.9599 56.92L19.1599 54.68L19.5899 54.52L20.2499 56.37L21.2699 56.01L21.4099 56.4L19.9599 56.92Z" fill="white"/>
<path d="M21.255 53.822L20.8413 54.0231L21.8816 56.1637L22.2953 55.9626L21.255 53.822Z" fill="white"/>
<path d="M22.7199 53.79L22.9299 54.68L23.4299 54.36L22.7199 53.79ZM24.0899 54.9L23.7399 54.62L23.0299 55.08L23.1399 55.51L22.7299 55.77L22.1699 53.3L22.4799 53.1L24.4999 54.64L24.0899 54.9Z" fill="white"/>
<path d="M25.9699 53.35L24.2899 52.91L25.2699 53.99L24.9299 54.3L23.3199 52.54L23.6299 52.26L25.3099 52.71L24.3299 51.63L24.6699 51.31L26.2799 53.07L25.9699 53.35Z" fill="white"/>
<path d="M26.8099 52.48L24.9299 51.01L25.8999 49.78L26.2299 50.03L25.5499 50.9L25.9899 51.25L26.5699 50.51L26.8899 50.76L26.3099 51.5L26.7699 51.86L27.4499 50.99L27.7699 51.25L26.8099 52.48Z" fill="white"/>
<path d="M26.3199 42.93C26.3199 48.81 21.5499 53.58 15.6699 53.58C9.7899 53.58 5.0199 48.81 5.0199 42.93C5.0199 37.05 9.7899 32.28 15.6699 32.28C21.5499 32.28 26.3199 37.05 26.3199 42.93Z" fill="white"/>
<path d="M13.3399 33.95C16.3899 34.3 18.2199 34.52 18.8199 34.63C19.3699 34.74 19.7999 34.86 20.1199 34.98C20.3799 35.09 20.6399 35.24 20.9099 35.41C21.2799 35.72 21.5299 35.97 21.6499 36.17C22.1699 36.92 22.4299 37.74 22.4299 38.63V38.71C22.4299 39.92 22.0399 40.8 21.2499 41.34C21.2299 41.35 21.1199 41.42 20.9099 41.55V41.56C21.6099 41.92 22.1299 42.56 22.4699 43.46C22.6199 43.93 22.6999 44.36 22.6999 44.75V45.24C22.6999 46.54 22.5099 47.53 21.5499 48.22C19.2099 49.96 18.3099 50.46 18.2099 50.51C17.3199 50.89 16.6499 50.95 15.9899 50.95H15.9599C15.4799 50.95 14.3399 50.84 12.5499 50.62L9.93994 50.31V50.3C9.93994 47.02 9.94994 42.32 9.95994 36.19C12.0899 34.77 13.2199 34.03 13.3399 33.95ZM18.5099 48.56C18.6499 48.28 18.6999 48.23 18.8399 47.81C18.9099 47.52 18.9899 47.23 19.0099 46.88C19.0299 46.3 18.9499 45.78 18.7799 45.3C18.6099 44.82 18.3599 44.4 18.0399 44.04C17.9299 43.93 17.8299 43.83 17.7399 43.75C17.6499 43.67 17.5599 43.6 17.4699 43.54C17.3799 43.48 17.3199 43.44 17.2799 43.42C17.2399 43.4 17.2199 43.39 17.2199 43.39C17.2199 43.39 17.2399 43.37 17.2999 43.33C17.3599 43.29 17.4599 43.23 17.6099 43.13C17.7499 43.02 17.8199 42.96 17.8699 42.91C17.9199 42.86 17.9499 42.82 18.0099 42.76C18.1599 42.58 18.2699 42.43 18.3599 42.25C18.4499 42.07 18.5299 41.86 18.6099 41.57C18.6499 41.39 18.6799 41.22 18.6999 41.04C18.7199 40.86 18.7299 40.68 18.7299 40.49V40.45V40.41C18.7099 39.92 18.6499 39.51 18.5199 39.13C18.3899 38.75 18.1999 38.38 17.9399 37.98C17.8099 37.81 17.6399 37.62 17.4799 37.47C17.3199 37.32 17.1699 37.2 17.0899 37.16C17.0199 37.11 16.9599 37.07 16.8699 37.01C16.7799 36.96 16.6499 36.89 16.4399 36.81C16.3199 36.76 16.1399 36.73 15.9199 36.7C15.6999 36.67 15.4399 36.64 15.1299 36.59L12.8399 36.41L10.5499 36.31C10.5499 37.58 10.5499 39.28 10.5399 41.54C10.5399 43.8 10.5299 46.55 10.5299 49.77C12.1899 49.99 13.4799 50.13 14.4099 50.22C15.3399 50.31 15.7599 50.28 16.0699 50.26C16.8499 50.14 17.2099 49.9 17.5999 49.62C18.1399 49.17 18.3199 48.86 18.5099 48.56ZM12.7999 43.98C13.9399 44.1 14.7399 44.23 15.1799 44.36C15.3699 44.42 15.5299 44.51 15.6699 44.61C16.1499 45.01 16.3999 45.63 16.3999 46.46C16.3999 47.37 16.0999 47.96 15.5099 48.23C15.2899 48.33 15.0499 48.38 14.7599 48.38H14.7099C14.5199 48.38 13.8699 48.31 12.7599 48.16C12.7699 47.15 12.7699 46.38 12.7699 45.88V44C12.7799 43.99 12.7899 43.98 12.7999 43.98ZM12.7899 38.38C14.0599 38.49 14.7899 38.6 14.9899 38.68C15.4299 38.83 15.7499 39.09 15.9299 39.45C16.0999 39.77 16.1799 40.15 16.1799 40.59C16.1799 41.42 15.9699 41.94 15.5599 42.14C15.3299 42.27 15.0099 42.33 14.5899 42.33C14.2199 42.33 13.6199 42.27 12.7799 42.16V38.38H12.7899Z" fill="#1D1D1B"/>
<path d="M36.35 34.98V51.2" stroke="#1D1D1B" stroke-width="1.244" stroke-miterlimit="10"/>
<path d="M41.65 47.83H42.31C42.61 47.83 42.86 47.7 42.86 47.34C42.86 46.99 42.61 46.86 42.31 46.86H41.65V47.83ZM41.65 46.52H42.14C42.51 46.53 42.78 46.47 42.78 46.09C42.78 45.72 42.52 45.65 42.14 45.66H41.65V46.52ZM41.25 48.17V45.33H42.27C42.76 45.33 43.19 45.52 43.19 46.07C43.19 46.36 42.99 46.61 42.71 46.68V46.69C43.07 46.74 43.28 47.07 43.28 47.43C43.28 47.76 43.06 48.01 42.76 48.12C42.61 48.17 42.44 48.18 42.27 48.17H41.25V48.17Z" fill="#1D1D1B"/>
<path d="M44.4599 47.21C44.2299 47.22 43.9299 47.3 43.9299 47.59C43.9299 47.83 44.0999 47.96 44.3199 47.96C44.7599 47.96 44.8499 47.58 44.8399 47.21H44.4599ZM44.8399 46.95C44.8399 46.61 44.8199 46.41 44.4199 46.41C44.2299 46.41 44.0499 46.52 44.0499 46.73H43.6599C43.6799 46.3 44.0199 46.14 44.4099 46.14C44.8199 46.14 45.2199 46.26 45.2199 46.81V47.75C45.2199 47.84 45.2199 48 45.2399 48.17H44.9899C44.9499 48.17 44.8899 48.19 44.8799 48.14C44.8699 48.05 44.8699 47.96 44.8599 47.87H44.8499C44.7299 48.12 44.5099 48.22 44.2399 48.22C43.8999 48.22 43.5499 48.04 43.5499 47.66C43.5499 47.11 44.0399 46.94 44.5099 46.94H44.8399V46.95Z" fill="#1D1D1B"/>
<path d="M46.06 46.48C46.19 46.23 46.47 46.13 46.66 46.13C46.8 46.13 47.41 46.17 47.41 46.8V48.17H47.04V46.93C47.04 46.6 46.9 46.43 46.59 46.43C46.59 46.43 46.39 46.42 46.23 46.57C46.17 46.63 46.07 46.71 46.07 47.1V48.17H45.7V46.19H46.07V46.48H46.06Z" fill="#1D1D1B"/>
<path d="M49.02 46.83C49 46.58 48.88 46.41 48.61 46.41C48.25 46.41 48.11 46.72 48.11 47.18C48.11 47.64 48.25 47.96 48.61 47.96C48.86 47.96 49.01 47.8 49.03 47.52H49.4C49.37 47.96 49.04 48.23 48.6 48.23C47.97 48.23 47.72 47.78 47.72 47.2C47.72 46.62 48.01 46.14 48.64 46.14C49.06 46.14 49.37 46.4 49.39 46.83H49.02V46.83Z" fill="#1D1D1B"/>
<path d="M50.57 47.95C51.01 47.95 51.16 47.6 51.16 47.17C51.16 46.75 51.02 46.4 50.57 46.4C50.13 46.4 49.98 46.75 49.98 47.17C49.98 47.6 50.12 47.95 50.57 47.95ZM51.55 47.18C51.55 47.79 51.22 48.23 50.56 48.23C49.91 48.23 49.58 47.8 49.58 47.18C49.58 46.57 49.91 46.13 50.56 46.13C51.22 46.13 51.55 46.57 51.55 47.18Z" fill="#1D1D1B"/>
<path d="M53.0699 46.6C53.3799 46.59 53.5099 46.45 53.5099 46.24C53.5099 46.03 53.3799 45.89 53.0699 45.88H52.6599V46.6H53.0699ZM51.8799 48.17V45.33H53.1899C53.8899 45.33 54.3399 45.55 54.3399 46.24C54.3399 46.93 53.8799 47.15 53.1899 47.15H52.6699V48.16H51.8799V48.17Z" fill="#1D1D1B"/>
<path d="M55.5399 47.79C55.8599 47.79 55.9199 47.46 55.9199 47.18C55.9199 46.9 55.8599 46.57 55.5399 46.57C55.2199 46.57 55.1599 46.9 55.1599 47.18C55.1599 47.46 55.2199 47.79 55.5399 47.79ZM56.6899 47.18C56.6899 47.91 56.1599 48.23 55.5399 48.23C54.9199 48.23 54.3899 47.91 54.3899 47.18C54.3899 46.45 54.9199 46.13 55.5399 46.13C56.1499 46.13 56.6899 46.45 56.6899 47.18Z" fill="#1D1D1B"/>
<path d="M57.9399 46.8C57.9399 46.73 57.9299 46.67 57.8899 46.64C57.8499 46.6 57.7899 46.57 57.6799 46.57C57.5699 46.57 57.4999 46.63 57.4999 46.75C57.4999 46.9 57.7999 46.89 58.2699 47.04C58.5099 47.11 58.6699 47.26 58.6699 47.58C58.6699 48.1 58.1799 48.24 57.7299 48.24C57.2499 48.24 56.7699 48.14 56.7799 47.54H57.4899C57.4799 47.6 57.4999 47.66 57.5399 47.72C57.5799 47.77 57.6499 47.81 57.7199 47.81C57.8699 47.81 57.9699 47.76 57.9699 47.63C57.9699 47.28 56.7999 47.49 56.7999 46.77C56.7999 46.28 57.3199 46.15 57.7099 46.15C58.1799 46.15 58.6099 46.27 58.6399 46.82H57.9399V46.8Z" fill="#1D1D1B"/>
<path d="M59.1999 46.19V45.89L59.9499 45.61V46.19H60.3799V46.66H59.9499V47.44C59.9499 47.49 59.9199 47.75 60.0899 47.75C60.1899 47.75 60.2899 47.75 60.3799 47.74V48.18C60.2099 48.21 60.0899 48.22 59.9799 48.22C59.4699 48.22 59.1699 48.15 59.1999 47.54V46.66H58.8099V46.19H59.1999Z" fill="#1D1D1B"/>
<path d="M61.55 47.79C61.87 47.79 61.9 47.49 61.9 47.22C61.74 47.22 61.59 47.21 61.49 47.26C61.38 47.31 61.29 47.38 61.29 47.52C61.29 47.68 61.4 47.79 61.55 47.79ZM61.93 48.17C61.91 48.11 61.91 48.05 61.91 47.9H61.9C61.81 48.04 61.64 48.23 61.27 48.23C60.8 48.23 60.56 47.98 60.57 47.57C60.58 47.09 61.02 46.89 61.66 46.89H61.9C61.9 46.72 61.94 46.46 61.64 46.48C61.46 46.49 61.4 46.66 61.4 46.78H60.7C60.7 46.5 60.84 46.34 61.04 46.25C61.24 46.16 61.5 46.13 61.72 46.13C62.12 46.13 62.6 46.3 62.6 46.74V47.76C62.6 47.84 62.62 47.93 62.64 48.16H61.93V48.17Z" fill="#1D1D1B"/>
<path d="M147.73 19.91H167.64V0H147.73V19.91ZM163.15 7.98V8L162.47 9.64H153.71C153.7 9.76 153.69 9.89 153.69 10.02C153.69 10.23 153.7 10.44 153.73 10.64H162.05L161.36 12.31H154.18C155.06 14.25 157 15.6 159.27 15.6C161.19 15.6 162.89 14.62 163.9 13.14V15.37C162.66 16.45 161.04 17.1 159.27 17.1C156.17 17.1 153.53 15.09 152.57 12.31H150.02L150.78 10.64H152.22C152.2 10.43 152.19 10.23 152.19 10.02C152.19 9.89 152.2 9.77 152.21 9.64H150.03L150.85 7.97H152.5C153.38 5.06 156.08 2.93 159.28 2.93C161.27 2.93 163.07 3.76 164.36 5.09L163.72 6.64C162.7 5.3 161.09 4.43 159.28 4.43C156.92 4.43 154.9 5.9 154.09 7.97H163.15V7.98Z" fill="#1D1D1B"/>
</svg>
