<svg width="113" height="16" viewBox="0 0 113 16" fill="none" xmlns="http://www.w3.org/2000/svg">
<path d="M110.86 9C110.9 7.34 110.15 6.06 108.34 6.06C106.78 6.06 105.86 7.38 105.86 9H110.86ZM105.85 10.3C105.71 12.03 106.42 13.83 108.33 13.83C109.79 13.83 110.52 13.26 110.74 11.82H112.71C112.41 14.07 110.68 15.19 108.31 15.19C105.14 15.19 103.88 12.94 103.88 10.03C103.88 7.13 105.34 4.71 108.47 4.71C111.43 4.77 112.83 6.64 112.83 9.38V10.31H105.85V10.3ZM95.6199 6.45H95.66C96.29 5.21 97.6699 4.7 98.6499 4.7C99.3399 4.7 102.4 4.88 102.4 8.05V14.89H100.53V8.66C100.53 7.02 99.8399 6.14 98.2599 6.14C98.2599 6.14 97.2399 6.08 96.4499 6.87C96.1799 7.15 95.66 7.58 95.66 9.51V14.89H93.7899V5H95.6199V6.45V6.45ZM88.0999 10.08C86.9599 10.14 85.4399 10.55 85.4399 11.99C85.4399 13.21 86.2899 13.82 87.3899 13.82C89.5999 13.82 90.0099 11.91 89.9699 10.08H88.0999ZM89.9799 8.78C89.9799 7.07 89.8799 6.06 87.8899 6.06C86.9399 6.06 86.0599 6.61 86.0399 7.64H84.0699C84.1699 5.47 85.8599 4.7 87.8099 4.7C89.8399 4.7 91.8499 5.31 91.8499 8.07V12.8C91.8499 13.23 91.8699 14.06 91.9299 14.89H90.6699C90.4899 14.89 90.1599 14.99 90.1399 14.75C90.0999 14.3 90.0599 13.86 90.0399 13.41H89.9999C89.3899 14.65 88.2799 15.18 86.9199 15.18C85.2099 15.18 83.4699 14.29 83.4699 12.36C83.4699 9.58 85.9299 8.77 88.2799 8.77H89.9799V8.78ZM79.7299 0.660004H81.9599V2.69H79.7299V0.660004ZM79.91 5H81.7799V14.9H79.91V5ZM75.7099 0.660004H77.5799V14.89H75.7099V0.660004ZM70.0999 10.08C68.9599 10.14 67.4399 10.55 67.4399 11.99C67.4399 13.21 68.2899 13.82 69.3899 13.82C71.5999 13.82 72.0099 11.91 71.9699 10.08H70.0999ZM71.9699 8.78C71.9699 7.07 71.8699 6.06 69.8799 6.06C68.9299 6.06 68.0399 6.61 68.0299 7.64H66.0599C66.1599 5.47 67.8499 4.7 69.8099 4.7C71.8399 4.7 73.8499 5.31 73.8499 8.07V12.8C73.8499 13.23 73.8699 14.06 73.9299 14.89H72.6699C72.4899 14.89 72.1599 14.99 72.1399 14.75C72.0999 14.3 72.0599 13.86 72.0399 13.41H71.9999C71.3899 14.65 70.2799 15.18 68.9299 15.18C67.2099 15.18 65.4799 14.29 65.4799 12.36C65.4799 9.58 67.9399 8.77 70.2899 8.77H71.9699V8.78ZM60.4599 5V2.89L62.3299 2.3V5L64.6199 4.94V6.34L62.3299 6.32V12.71C62.3299 13.42 62.8799 13.76 63.5499 13.76C63.8499 13.76 64.2399 13.72 64.5399 13.64V15.08C64.1099 15.1 63.6899 15.2 63.2599 15.2C62.8099 15.2 62.4499 15.18 61.9999 15.1C61.6999 15.04 61.2099 14.88 60.8999 14.45C60.5699 13.97 60.4699 13.94 60.4699 12.61V6.32L58.7799 6.34V4.94L60.4599 5ZM55.41 0.660004H57.6399V2.69H55.41V0.660004ZM55.5899 5H57.4599V14.9H55.5899V5ZM36.6199 5.09V3.6L40.3499 2.19V5.1H42.5099V7.46H40.3499V11.37C40.3499 11.62 40.1899 12.9 41.0599 12.9C41.5499 12.9 42.0599 12.9 42.4999 12.84V15.06C41.6499 15.22 41.0399 15.26 40.4899 15.26C37.9599 15.26 36.4199 14.91 36.6199 11.88V7.46H34.6999V5.1H36.6199V5.09ZM30.4699 8.14C30.4699 7.81 30.4099 7.51 30.2299 7.32C30.0299 7.11 29.7199 6.97 29.2099 6.97C28.6599 6.97 28.3299 7.28 28.3299 7.85C28.3299 8.58 29.8399 8.54 32.1799 9.27C33.3599 9.64 34.16 10.37 34.16 11.98C34.16 14.59 31.6999 15.26 29.4399 15.26C27.0199 15.26 24.6599 14.77 24.6799 11.76H28.2199C28.1599 12.05 28.2599 12.39 28.4799 12.64C28.6999 12.9 29.0099 13.09 29.3599 13.09C30.0899 13.09 30.6199 12.82 30.6199 12.19C30.6199 10.44 24.7799 11.48 24.7799 7.91C24.7799 5.47 27.3699 4.81 29.3399 4.81C31.6799 4.81 33.8399 5.42 33.9999 8.15H30.4699V8.14ZM18.2299 13.09C19.7999 13.09 20.1399 11.42 20.1399 10.02C20.1399 8.62 19.8099 6.95 18.2299 6.95C16.6599 6.95 16.3199 8.62 16.3199 10.02C16.3199 11.42 16.6499 13.09 18.2299 13.09ZM23.9599 10.03C23.9599 13.67 21.3099 15.26 18.2199 15.26C15.1299 15.26 12.4799 13.67 12.4799 10.03C12.4799 6.39 15.1299 4.8 18.2199 4.8C21.3099 4.8 23.9599 6.39 23.9599 10.03ZM6.02995 7.14C7.57995 7.08 8.22995 6.37 8.22995 5.33C8.22995 4.29 7.57995 3.58 6.02995 3.52H3.99995V7.13H6.02995V7.14ZM0.0699463 14.96V0.769997H6.59995C10.0799 0.769997 12.3599 1.89 12.3599 5.33C12.3599 8.77 10.0799 9.89 6.59995 9.89H3.99995V14.96H0.0699463V14.96ZM50.4399 8.77C50.4399 8.24 50.2799 7.71 49.9899 7.3C49.6999 6.89 49.2599 6.63 48.6899 6.67C47.3899 6.73 47.0799 7.65 46.9799 8.77H50.4399ZM46.8999 10.77C46.8799 12.05 47.2099 13.15 48.6099 13.15C49.6499 13.15 50.2999 12.66 50.4399 11.74H53.8999C53.7799 13.02 52.9799 13.94 52.0299 14.49C51.1599 15.04 50.06 15.26 48.91 15.26C44.96 15.26 43.3899 13.57 43.3899 9.7C43.3899 6.57 45.7299 4.81 48.6999 4.81C52.7099 4.81 53.9899 7.11 53.9899 10.78H46.8999V10.77Z" fill="#1D1D1B"/>
</svg>
