<svg width="16" height="11" viewBox="0 0 16 11" fill="none" xmlns="http://www.w3.org/2000/svg">
<path d="M15.5099 7.21001C15.4799 6.86001 15.3399 6.53 15.1299 6.24001C15.0099 6.07 14.8499 5.93001 14.6799 5.80001C14.2199 5.46001 13.64 5.29001 13.03 5.31001H13.02L12.8799 5.32001C12.5499 5.34001 12.2099 5.43001 11.9099 5.57001C11.7999 5.62001 11.7699 5.64001 11.7599 5.65001C10.8199 6.16001 10.12 6.37 9.64996 6.44C9.85996 6.01 10.2499 5.40001 10.9999 4.64001C11.0099 4.63 11.0399 4.60001 11.1199 4.52001C11.3399 4.27001 11.52 3.97001 11.64 3.66001L11.6799 3.53001C11.9399 2.73001 11.8199 1.85001 11.3699 1.25001C11.2199 1.05001 11.0299 0.880005 10.8099 0.750005C10.4399 0.530005 9.98993 0.440005 9.54993 0.500005C9.14993 0.560005 8.74991 0.730005 8.40991 1.01001C8.20991 1.17001 8.03995 1.36001 7.88995 1.57001C7.68995 1.88001 7.58992 2.10001 7.53992 2.25001C7.24992 3.07001 7.35995 3.98001 7.81995 4.60001C7.89995 4.70001 7.98997 4.8 8.08997 4.89001C8.13997 4.94001 8.19995 4.99001 8.25995 5.03001L7.58997 6.60001L2.45996 7.50001C2.43996 7.50001 2.41996 7.50001 2.39996 7.51001C2.28996 7.53001 2.16992 7.54001 2.03992 7.59001C1.58992 7.76001 1.32995 8.17 1.19995 8.48C1.12995 8.63 1.08994 8.76001 1.05994 8.88001L0.989929 9.19001C0.979929 9.24001 0.989968 9.29001 1.02997 9.33001C1.05997 9.37001 1.11992 9.39001 1.16992 9.38001L6.75995 8.68001L5.93994 10.66H7.91992L8.98993 8.4L10.6199 8.20001C10.6899 8.39001 10.78 8.57001 10.9 8.73001C11.35 9.32001 12.13 9.68001 12.96 9.67001C13.91 9.65001 14.7799 9.18001 15.2199 8.43001C15.4499 8.03001 15.5499 7.61001 15.5099 7.21001ZM9.01996 3.98001C8.95996 3.94001 8.89991 3.88001 8.84991 3.82001C8.64991 3.55001 8.62994 3.16001 8.68994 2.88001C8.76994 2.50001 8.97996 2.15001 9.26996 1.93001C9.53996 1.73001 9.84997 1.67001 10.09 1.78001C10.19 1.83001 10.2799 1.90001 10.3599 1.99001C10.5099 2.20001 10.5799 2.52001 10.5399 2.84001C10.4799 3.26001 10.2499 3.66001 9.92993 3.89001C9.68993 4.06001 9.31996 4.18001 9.01996 3.98001ZM14.2499 7.46001C14.2299 7.60001 14.1699 7.75001 14.0599 7.88001C13.8299 8.16001 13.4299 8.34 13.0099 8.36C12.6599 8.37001 12.2 8.27 11.95 7.94C11.94 7.93 11.9299 7.92 11.9199 7.9C11.7499 7.65 11.7799 7.33 11.9799 7.07C12.1799 6.82 12.51 6.64001 12.89 6.59001H12.9299C13.2899 6.55001 13.7699 6.63001 14.0699 6.96001C14.0799 6.98001 14.0999 6.99001 14.1099 7.01001C14.2199 7.13001 14.2599 7.30001 14.2499 7.46001Z" fill="#868686"/>
</svg>
